<?xml version="1.0" standalone="no"?>
<!DOCTYPE svg PUBLIC "-//W3C//DTD SVG 20010904//EN"
 "http://www.w3.org/TR/2001/REC-SVG-20010904/DTD/svg10.dtd">
<svg version="1.0" xmlns="http://www.w3.org/2000/svg"
 width="1536.000000pt" height="383.000000pt" viewBox="0 0 1536.000000 383.000000"
 preserveAspectRatio="xMidYMid meet">
<metadata>
Created by potrace 1.16, written by Peter Selinger 2001-2019
</metadata>
<g transform="translate(0.000000,383.000000) scale(0.100000,-0.100000)"
fill="#000000" stroke="none">
<path d="M9392 3815 c-34 -7 -142 -36 -240 -63 -97 -28 -238 -67 -312 -88
-216 -59 -322 -103 -505 -208 -93 -54 -121 -57 -266 -27 -164 34 -870 150
-974 160 -55 6 -176 15 -270 21 -93 6 -300 24 -460 40 -315 31 -684 63 -945
81 -223 15 -1248 23 -1490 11 -131 -6 -357 -4 -690 4 -664 17 -944 17 -1131
-1 -85 -8 -361 -30 -614 -50 -253 -20 -668 -55 -922 -78 -510 -48 -485 -42
-524 -119 -30 -59 -52 -166 -46 -230 11 -121 97 -260 271 -434 138 -139 256
-230 371 -286 59 -29 101 -59 160 -117 44 -43 138 -124 208 -181 71 -56 163
-133 205 -172 112 -101 177 -145 367 -248 267 -144 372 -210 433 -272 34 -35
67 -60 86 -64 47 -10 101 -40 219 -121 66 -46 177 -108 285 -159 97 -47 188
-90 202 -97 14 -7 71 -47 127 -90 235 -178 539 -335 1008 -520 605 -239 995
-331 1695 -402 140 -14 345 -42 455 -63 197 -37 203 -37 440 -36 132 1 294 4
360 9 l119 7 -26 23 c-82 70 -459 157 -785 181 -51 4 -90 11 -87 15 3 5 20 9
39 9 19 0 80 9 137 20 57 10 151 24 209 30 227 22 310 69 441 246 110 150 181
176 436 156 228 -18 318 -39 686 -158 472 -154 607 -185 871 -205 152 -11 459
-7 516 7 l26 6 -13 69 c-29 155 -138 437 -204 527 -28 40 -31 41 -162 71 -73
18 -176 40 -228 50 l-95 18 590 5 c397 4 655 11 790 21 110 9 353 23 540 32
187 8 398 20 469 25 187 14 265 13 431 -10 131 -18 203 -20 634 -20 454 0 492
1 571 20 46 12 152 25 235 30 136 9 252 18 660 51 330 26 591 115 795 268 103
77 164 105 252 116 55 7 56 8 73 51 18 47 31 59 146 134 99 64 302 273 346
355 29 56 32 71 42 213 15 217 20 197 -44 226 -84 38 -140 81 -246 186 -53 54
-123 117 -155 142 -205 158 -515 290 -761 326 -105 15 -132 15 -390 -1 -488
-30 -783 -62 -988 -107 -71 -16 -186 -39 -255 -50 -144 -25 -196 -48 -309
-140 -40 -33 -83 -62 -94 -65 -12 -2 -92 -6 -177 -9 -85 -2 -247 -13 -360 -25
-112 -11 -303 -25 -425 -32 -197 -10 -226 -10 -280 5 -286 78 -381 94 -700
121 -99 8 -259 26 -355 40 -96 13 -204 25 -240 25 l-65 0 25 20 c39 30 108 40
227 34 182 -11 225 14 327 189 70 120 80 147 71 194 -17 90 -274 281 -470 348
-67 23 -214 28 -293 10z m-974 -2670 c263 -39 275 -43 164 -44 -70 -1 -128 7
-235 30 -220 48 -192 53 71 14z"/>
</g>
</svg>
